<svg width="200" height="200" viewBox="0 0 200 200" fill="none" xmlns="http://www.w3.org/2000/svg">
<path d="M162.5 81.25C162.5 99.1797 156.68 115.742 146.875 129.18L196.328 178.672C201.211 183.555 201.211 191.484 196.328 196.367C191.445 201.25 183.516 201.25 178.633 196.367L129.18 146.875C115.742 156.719 99.1797 162.5 81.25 162.5C36.3672 162.5 0 126.133 0 81.25C0 36.3672 36.3672 0 81.25 0C126.133 0 162.5 36.3672 162.5 81.25ZM81.25 137.5C88.6369 137.5 95.9514 136.045 102.776 133.218C109.601 130.391 115.801 126.248 121.025 121.025C126.248 115.801 130.391 109.601 133.218 102.776C136.045 95.9514 137.5 88.6369 137.5 81.25C137.5 73.8631 136.045 66.5486 133.218 59.7241C130.391 52.8995 126.248 46.6985 121.025 41.4752C115.801 36.2519 109.601 32.1086 102.776 29.2818C95.9514 26.455 88.6369 25 81.25 25C73.8631 25 66.5486 26.455 59.7241 29.2818C52.8995 32.1086 46.6985 36.2519 41.4752 41.4752C36.2519 46.6985 32.1086 52.8995 29.2818 59.7241C26.4549 66.5486 25 73.8631 25 81.25C25 88.6369 26.4549 95.9514 29.2818 102.776C32.1086 109.601 36.2519 115.801 41.4752 121.025C46.6985 126.248 52.8995 130.391 59.7241 133.218C66.5486 136.045 73.8631 137.5 81.25 137.5Z" fill="#F0F0F0"/>
</svg>
