<svg width="200" height="200" viewBox="0 0 200 200" fill="none" xmlns="http://www.w3.org/2000/svg">
<path d="M115.385 15.3846C115.385 6.875 108.51 0 100 0C91.4904 0 84.6154 6.875 84.6154 15.3846V84.6154H15.3846C6.875 84.6154 0 91.4904 0 100C0 108.51 6.875 115.385 15.3846 115.385H84.6154V184.615C84.6154 193.125 91.4904 200 100 200C108.51 200 115.385 193.125 115.385 184.615V115.385H184.615C193.125 115.385 200 108.51 200 100C200 91.4904 193.125 84.6154 184.615 84.6154H115.385V15.3846Z" fill="#f0f0f0"/>
</svg>
