<svg width="175" height="200" viewBox="0 0 175 200" fill="none" xmlns="http://www.w3.org/2000/svg">
<path d="M52.8125 6.91406L50 12.5H12.5C5.58594 12.5 0 18.0859 0 25C0 31.9141 5.58594 37.5 12.5 37.5H162.5C169.414 37.5 175 31.9141 175 25C175 18.0859 169.414 12.5 162.5 12.5H125L122.187 6.91406C120.078 2.65625 115.742 0 111.016 0H63.9844C59.2578 0 54.9219 2.65625 52.8125 6.91406ZM162.5 50H12.5L20.7813 182.422C21.4063 192.305 29.6094 200 39.4922 200H135.508C145.391 200 153.594 192.305 154.219 182.422L162.5 50Z" fill="#F0F0F0"/>
</svg>
