<svg width="200" height="200" viewBox="0 0 200 200" fill="none" xmlns="http://www.w3.org/2000/svg">
<path d="M194.081 34.1559C201.89 26.347 201.89 13.6655 194.081 5.85663C186.272 -1.95221 173.59 -1.95221 165.782 5.85663L100 71.7008L34.1559 5.9191C26.347 -1.88974 13.6655 -1.88974 5.85663 5.9191C-1.95221 13.7279 -1.95221 26.4095 5.85663 34.2183L71.7008 100L5.9191 165.844C-1.88974 173.653 -1.88974 186.335 5.9191 194.143C13.7279 201.952 26.4095 201.952 34.2183 194.143L100 128.299L165.844 194.081C173.653 201.89 186.335 201.89 194.143 194.081C201.952 186.272 201.952 173.59 194.143 165.782L128.299 100L194.081 34.1559Z" fill="#f0f0f0"/>
</svg>
